<!-- Generated by IcoMoon.io -->
<svg version="1.1" xmlns="http://www.w3.org/2000/svg" width="32" height="32" viewBox="0 0 32 32">
    <path
        d="M14.123 3.2c0.442 0 0.8 0.358 0.8 0.8 0 0.398-0.29 0.728-0.67 0.79l-0.13 0.010h-8.523c-0.398 0-0.728 0.29-0.79 0.67l-0.010 0.13v20.8c0 0.398 0.29 0.728 0.67 0.79l0.13 0.010h20.8c0.398 0 0.728-0.29 0.79-0.67l0.010-0.13v-8.576c0-0.442 0.358-0.8 0.8-0.8 0.398 0 0.728 0.29 0.79 0.67l0.010 0.13v8.576c0 1.259-0.97 2.292-2.203 2.392l-0.197 0.008h-20.8c-1.259 0-2.292-0.97-2.392-2.203l-0.008-0.197v-20.8c0-1.259 0.97-2.292 2.203-2.392l0.197-0.008h8.523z">
    </path>
    <path
        d="M26.755 4.194c0.314-0.311 0.82-0.309 1.131 0.005 0.276 0.279 0.305 0.71 0.088 1.021l-0.093 0.11-8.651 8.571c-0.314 0.311-0.82 0.309-1.131-0.005-0.276-0.279-0.305-0.71-0.088-1.021l0.093-0.11 8.651-8.571z">
    </path>
    <path
        d="M26.667 3.2c1.113 0 2.027 0.852 2.125 1.939l0.009 0.194v6.667c0 0.442-0.358 0.8-0.8 0.8-0.398 0-0.728-0.29-0.79-0.67l-0.010-0.13v-6.667c0-0.258-0.183-0.473-0.426-0.522l-0.108-0.011h-6.667c-0.442 0-0.8-0.358-0.8-0.8 0-0.398 0.29-0.728 0.67-0.79l0.13-0.010h6.667z">
    </path>
</svg>