<svg version="1.1" xmlns="http://www.w3.org/2000/svg" width="24" height="24" viewBox="0 0 24 24">
<path fill="currentColor" d="M20.63 11.457c0.273 0.273 0.273 0.717 0 0.99l-3 3c-0.273 0.273-0.717 0.273-0.99 0s-0.273-0.717 0-0.99l2.506-2.505-2.506-2.505c-0.246-0.246-0.271-0.63-0.074-0.903l0.074-0.087c0.273-0.273 0.717-0.273 0.99 0l3 3zM3.72 18.83c-0.387 0-0.7 0.313-0.7 0.7s0.313 0.7 0.7 0.7h16.555c0.387 0 0.7-0.313 0.7-0.7s-0.313-0.7-0.7-0.7h-16.555zM3.72 13.83c-0.387 0-0.7 0.313-0.7 0.7s0.313 0.7 0.7 0.7h8.556c0.387 0 0.7-0.313 0.7-0.7s-0.313-0.7-0.7-0.7h-8.556zM3.72 8.83c-0.387 0-0.7 0.313-0.7 0.7s0.313 0.7 0.7 0.7h8.556c0.387 0 0.7-0.313 0.7-0.7s-0.313-0.7-0.7-0.7h-8.556zM3.72 3.83c-0.387 0-0.7 0.313-0.7 0.7s0.313 0.7 0.7 0.7h16.555c0.387 0 0.7-0.313 0.7-0.7s-0.313-0.7-0.7-0.7h-16.555z"></path>
</svg>
