<svg version="1.1" xmlns="http://www.w3.org/2000/svg" width="24" height="24" viewBox="0 0 24 24">
<path fill="#fff" d="M9.75 5.625v0.75c0 0.207-0.168 0.375-0.375 0.375h-2.25c-0.207 0-0.375 0.168-0.375 0.375v2.25c0 0.207-0.168 0.375-0.375 0.375h-0.75c-0.207 0-0.375-0.168-0.375-0.375v-3.75c0-0.207 0.168-0.375 0.375-0.375h3.75c0.207 0 0.375 0.168 0.375 0.375zM13.5 5.625v0.75c0 0.207 0.168 0.375 0.375 0.375h2.25c0.207 0 0.375 0.168 0.375 0.375v2.25c0 0.207 0.168 0.375 0.375 0.375h0.75c0.207 0 0.375-0.168 0.375-0.375v-3.75c0-0.207-0.168-0.375-0.375-0.375h-3.75c-0.207 0-0.375 0.168-0.375 0.375zM9.75 16.875v0.75c0 0.207-0.168 0.375-0.375 0.375h-3.75c-0.207 0-0.375-0.168-0.375-0.375v-3.75c0-0.207 0.168-0.375 0.375-0.375h0.75c0.207 0 0.375 0.168 0.375 0.375v2.25c0 0.207 0.168 0.375 0.375 0.375h2.25c0.207 0 0.375 0.168 0.375 0.375zM13.5 16.875v0.75c0 0.207 0.168 0.375 0.375 0.375h3.75c0.207 0 0.375-0.168 0.375-0.375v-3.75c0-0.207-0.168-0.375-0.375-0.375h-0.75c-0.207 0-0.375 0.168-0.375 0.375v2.25c0 0.207-0.168 0.375-0.375 0.375h-2.25c-0.207 0-0.375 0.168-0.375 0.375z"></path>
</svg>
