<svg version="1.1" xmlns="http://www.w3.org/2000/svg" width="24" height="24" viewBox="0 0 24 24">
<path fill="currentColor" d="M4.603 11.779c-0.396 0.396-0.627 0.929-0.642 1.488l-0.105 3.489v0.029c0.018 0.552 0.478 0.987 1.028 0.97l3.46-0.104c0.56-0.018 1.093-0.248 1.488-0.645l8.060-8.057c0.858-0.86 0.858-2.253 0-3.111l-2.118-2.118c-0.861-0.86-2.253-0.86-3.111 0l-8.060 8.058zM14.783 4.711l2.118 2.118c0.314 0.312 0.314 0.819 0 1.131l-8.057 8.058-0.091 0.079c-0.132 0.095-0.287 0.15-0.451 0.154l-3.035 0.092 0.094-3.034c0.006-0.204 0.091-0.397 0.234-0.542l8.057-8.057c0.313-0.313 0.82-0.313 1.131 0zM20.048 16.355c0.387 0 0.7 0.314 0.7 0.7 0 0.354-0.264 0.648-0.606 0.694l-0.094 0.006h-6.472c-0.387 0-0.697-0.314-0.697-0.7 0-0.354 0.261-0.647 0.604-0.693l0.094-0.007h6.472zM20.048 19.522c0.387 0 0.7 0.314 0.7 0.7 0 0.355-0.264 0.648-0.606 0.694l-0.094 0.006h-15.516c-0.387 0-0.7-0.313-0.7-0.7 0-0.354 0.264-0.647 0.606-0.693l0.094-0.007h15.516z"></path>
</svg>
