<!-- Generated by IcoMoon.io -->
<svg version="1.1" xmlns="http://www.w3.org/2000/svg" width="24" height="24" viewBox="0 0 24 24">
<path opacity="0.8" fill="currentColor" d="M4.156 4.213c1.442-1.412 3.7-1.528 5.147-0.268l0.154 0.142 4.971 4.867 0.138 0.144c1.104 1.226 1.062 3.127-0.112 4.412l-0.142 0.147-0.554 0.543-0.088 0.073c-0.276 0.194-0.659 0.165-0.902-0.083s-0.266-0.637-0.058-0.912l0.083-0.093 0.542-0.53 0.125-0.133c0.631-0.729 0.679-1.758 0.103-2.444l-0.111-0.119-4.977-4.873-0.124-0.112c-0.894-0.745-2.302-0.654-3.216 0.24-0.899 0.881-1.002 2.231-0.249 3.103l0.115 0.123 1.929 1.889 0.075 0.086c0.2 0.271 0.179 0.655-0.064 0.904s-0.632 0.28-0.91 0.078l-0.085-0.072-1.921-1.881-0.143-0.149c-1.29-1.42-1.182-3.655 0.274-5.080zM11.122 9.9c-0.243-0.249-0.627-0.277-0.902-0.083l-0.087 0.073-0.554 0.543-0.142 0.147c-1.175 1.285-1.217 3.186-0.113 4.412l0.138 0.144 4.972 4.867 0.154 0.142c1.447 1.26 3.705 1.144 5.147-0.268 1.456-1.425 1.564-3.66 0.274-5.080l-0.143-0.149-1.921-1.881-0.085-0.072c-0.279-0.202-0.667-0.171-0.91 0.078s-0.264 0.633-0.064 0.904l0.075 0.086 1.929 1.889 0.115 0.123c0.753 0.872 0.651 2.222-0.249 3.103-0.914 0.895-2.322 0.986-3.216 0.24l-0.124-0.112-4.977-4.873-0.111-0.119c-0.576-0.686-0.527-1.715 0.103-2.444l0.125-0.133 0.542-0.53 0.084-0.093c0.208-0.274 0.185-0.663-0.058-0.912z"></path>
</svg>
