<!-- Generated by IcoMoon.io -->
<svg version="1.1" xmlns="http://www.w3.org/2000/svg" width="24" height="24" viewBox="0 0 24 24">
<path fill="currentColor" d="M8.81 3.3l-5.51 5.51c-0.1 0.1-0.17 0.21-0.23 0.34-0.050 0.12-0.080 0.26-0.070 0.39-0.010 0.14 0.020 0.28 0.070 0.4 0.060 0.13 0.13 0.24 0.23 0.34l0.3 0.31c0.31 0.3 0.83 0.52 1.26 0.52h1.040c0.15 0 0.42 0.11 0.52 0.21l2.91 2.91c0.1 0.1 0.21 0.37 0.21 0.52v1.040c0 0.43 0.22 0.95 0.53 1.26l0.3 0.3c0.41 0.41 1.070 0.41 1.47 0l1.62-1.62 6.7 5.16c0.020 0.020 0.050 0.030 0.080 0.050 0.020 0.010 0.050 0.020 0.080 0.030s0.060 0.020 0.1 0.020c0.030 0.010 0.060 0.010 0.090 0 0.030 0 0.060 0 0.090-0.010s0.060-0.020 0.090-0.030c0.030-0.010 0.060-0.030 0.080-0.050 0.030-0.020 0.050-0.040 0.070-0.060 0.050-0.050 0.090-0.1 0.12-0.17 0.020-0.060 0.040-0.13 0.040-0.2 0-0.11-0.040-0.22-0.11-0.31l-5.16-6.7 1.62-1.62c0.1-0.1 0.17-0.21 0.23-0.34 0.050-0.12 0.070-0.26 0.070-0.39 0-0.28-0.1-0.54-0.3-0.74l-0.3-0.31c-0.31-0.3-0.83-0.52-1.26-0.52h-1.040c-0.15 0-0.42-0.11-0.52-0.21l-2.91-2.91c-0.11-0.1-0.22-0.37-0.22-0.52v-1.040c0-0.43-0.21-0.95-0.52-1.26l-0.3-0.3c-0.2-0.2-0.46-0.3-0.74-0.3-0.27 0-0.54 0.1-0.73 0.3v0zM17.63 17.63l-3.43-2.64 0.79-0.79 2.64 3.43zM9.85 4.34c0.11 0.1 0.22 0.37 0.22 0.52v1.040c0 0.43 0.21 0.96 0.52 1.26l2.9 2.9c0.31 0.31 0.83 0.53 1.26 0.53h1.040c0.15 0 0.42 0.11 0.52 0.21l0.31 0.3-5.51 5.52-0.31-0.31c-0.1-0.1-0.21-0.37-0.21-0.52v-1.040c0-0.43-0.22-0.96-0.52-1.26l-2.91-2.9c-0.3-0.31-0.83-0.53-1.26-0.53h-1.040c-0.15 0-0.41-0.11-0.52-0.21l-0.3-0.31 5.51-5.5 0.3 0.3z"></path>
</svg>
