<svg version="1.1" xmlns="http://www.w3.org/2000/svg" width="23" height="24" viewBox="0 0 23 24">
<path opacity="0.8" fill="#fff" d="M9.738 4.142c0.256 0 0.501 0.105 0.677 0.291l4.927 5.188c0.106 0.112 0.183 0.248 0.223 0.395 0.041 0.106 0.064 0.222 0.064 0.342 0 0.081-0.010 0.16-0.030 0.235l-0 10.456c0 1.473-1.194 2.667-2.667 2.667h-9.972c-1.473 0-2.667-1.194-2.667-2.667v-14.24c0-1.473 1.194-2.667 2.667-2.667zM8.646 6.009l-5.687 0.001c-0.442 0-0.8 0.358-0.8 0.8v14.24c0 0.442 0.358 0.8 0.8 0.8h9.972c0.442 0 0.8-0.358 0.8-0.8l-0.001-9.759-2.362 0.001c-1.451 0-2.636-1.161-2.666-2.611l-0.056-2.671zM7.333 18.74c0.368 0 0.667 0.298 0.667 0.667s-0.298 0.667-0.667 0.667h-3.324c-0.368 0-0.667-0.298-0.667-0.667s0.298-0.667 0.667-0.667h3.324zM19.692 0.202c1.473 0 2.667 1.194 2.667 2.667v13.509c0 1.473-1.194 2.667-2.667 2.667h-1.94c-0.515 0-0.933-0.418-0.933-0.933s0.418-0.933 0.933-0.933h1.94c0.442 0 0.8-0.358 0.8-0.8v-13.509c0-0.442-0.358-0.8-0.8-0.8h-9.952c-0.372 0-0.684 0.254-0.774 0.597l-1.885 0.001c0.103-1.379 1.254-2.465 2.659-2.465h9.952zM9.084 16.074c0.368 0 0.667 0.298 0.667 0.667s-0.298 0.667-0.667 0.667h-5.057c-0.368 0-0.667-0.298-0.667-0.667s0.298-0.667 0.667-0.667h5.057zM10.676 13.407c0.368 0 0.667 0.298 0.667 0.667s-0.298 0.667-0.667 0.667h-6.64c-0.368 0-0.667-0.298-0.667-0.667s0.298-0.667 0.667-0.667h6.64zM10.539 7.275l0.029 1.366c0.009 0.435 0.364 0.783 0.8 0.783l1.212-0.001-2.041-2.148z"></path>
</svg>
