<!-- Generated by IcoMoon.io -->
<svg version="1.1" xmlns="http://www.w3.org/2000/svg" width="24" height="24" viewBox="0 0 24 24">
<path fill="#fa7305" d="M21 12c0 4.971-4.029 9-9 9s-9-4.029-9-9c0-4.971 4.029-9 9-9s9 4.029 9 9z"></path>
<path fill="#fff" d="M12 9.4c0.552 0 1-0.448 1-1s-0.448-1-1-1c-0.552 0-1 0.448-1 1s0.448 1 1 1zM12.492 10.943c-0.042-0.233-0.246-0.41-0.492-0.41-0.276 0-0.5 0.224-0.5 0.5v5.5l0.008 0.090c0.042 0.233 0.246 0.41 0.492 0.41 0.276 0 0.5-0.224 0.5-0.5v-5.5l-0.008-0.090z"></path>
</svg>
